<?xml version="1.0" encoding="UTF-8"?>
<!-- Uploaded to: ICON Repo, www.iconrepo.com, Generator: ICON Repo Mixer Tools -->
<svg fill="#000000" width="800px" height="800px" version="1.1" viewBox="144 144 512 512" xmlns="http://www.w3.org/2000/svg">
 <g fill-rule="evenodd">
  <path d="m508.17 175.61h-216.2c-6.1836 0-12.113 2.457-16.484 6.8281-4.3711 4.375-6.8281 10.301-6.8281 16.484v369.29c0 6.1836 2.457 12.113 6.8281 16.484 4.3711 4.3711 10.301 6.8281 16.484 6.8281h300.21c6.1836 0 12.113-2.457 16.484-6.8281 4.3711-4.375 6.8281-10.301 6.8281-16.484v-326.29c0-2.2109-0.3125-4.3789-0.90625-6.4414h-74.844c-8.375 0-16.406-3.3281-22.328-9.2461-5.9219-5.9219-9.2461-13.953-9.2461-22.328zm-168.06 295.24c-19.465 0-35.27 15.805-35.27 35.266 0 19.465 15.805 35.27 35.27 35.27s35.266-15.805 35.266-35.27c0-19.465-15.805-35.266-35.266-35.266zm60.562 56.422h174.7c2.1719 0 3.9336-1.7617 3.9336-3.9336 0-2.1719-1.7617-3.9297-3.9336-3.9297h-174.7c-2.1719 0-3.9297 1.7617-3.9297 3.9297 0 2.1719 1.7617 3.9336 3.9297 3.9336zm-77.469-16.312 8.043 8.043c1.5352 1.5352 4.0234 1.5352 5.5586 0l20.211-20.211c1.5352-1.5352 1.5352-4.0234 0-5.5586-1.5352-1.5352-4.0273-1.5352-5.5625 0l-17.43 17.43-5.2656-5.2656c-1.5352-1.5352-4.0234-1.5352-5.5586 0-1.5352 1.5352-1.5352 4.0273 0 5.5625zm77.469-18.137h142.57c2.1719 0 3.9336-1.7617 3.9336-3.9297 0-2.1719-1.7617-3.9297-3.9336-3.9297h-142.57c-2.1719 0-3.9297 1.7617-3.9297 3.9297 0 2.1719 1.7617 3.9297 3.9297 3.9297zm-60.562-132.05c-19.465 0-35.27 15.805-35.27 35.266 0 19.465 15.805 35.27 35.27 35.27s35.266-15.805 35.266-35.27-15.805-35.266-35.266-35.266zm60.562 56.422h174.7c2.1719 0 3.9336-1.7617 3.9336-3.9336 0-2.168-1.7617-3.9297-3.9336-3.9297h-174.7c-2.1719 0-3.9297 1.7617-3.9297 3.9297 0 2.1719 1.7617 3.9336 3.9297 3.9336zm-77.469-16.312 8.043 8.043c1.5352 1.5352 4.0234 1.5352 5.5586 0l20.211-20.211c1.5352-1.5352 1.5352-4.0234 0-5.5586s-4.0273-1.5352-5.5625 0l-17.43 17.43-5.2656-5.2617c-1.5352-1.5352-4.0234-1.5352-5.5586 0-1.5352 1.5352-1.5352 4.0234 0 5.5586zm77.469-18.137h123.22c2.168 0 3.9297-1.7617 3.9297-3.9297 0-2.1719-1.7617-3.9297-3.9297-3.9297h-123.22c-2.1719 0-3.9297 1.7617-3.9297 3.9297 0 2.1719 1.7617 3.9297 3.9297 3.9297zm-60.562-132.05c-19.465 0-35.27 15.805-35.27 35.266 0 19.465 15.805 35.27 35.27 35.27s35.266-15.805 35.266-35.27c0-19.465-15.805-35.266-35.266-35.266zm60.562 56.422h174.7c2.1719 0 3.9336-1.7617 3.9336-3.9297 0-2.1719-1.7617-3.9336-3.9336-3.9336h-174.7c-2.1719 0-3.9297 1.7617-3.9297 3.9336 0 2.168 1.7617 3.9297 3.9297 3.9297zm-77.469-16.312 8.043 8.043c1.5352 1.5352 4.0234 1.5352 5.5586 0l20.211-20.211c1.5352-1.5352 1.5352-4.0234 0-5.5586-1.5352-1.5352-4.0273-1.5352-5.5625 0l-17.43 17.43-5.2656-5.2656c-1.5352-1.5352-4.0234-1.5352-5.5586 0-1.5352 1.5352-1.5352 4.0234 0 5.5586zm77.469-18.133h123.22c2.168 0 3.9297-1.7617 3.9297-3.9336s-1.7617-3.9297-3.9297-3.9297h-123.22c-2.1719 0-3.9297 1.7617-3.9297 3.9297 0 2.1719 1.7617 3.9336 3.9297 3.9336zm115.36-96.238c1.6055 0.44141 3.168 1.0508 4.6523 1.8281l82.297 43.004c3.0195 1.5781 5.5977 3.7617 7.6133 6.3594h-70.848c-6.2891 0-12.32-2.5-16.77-6.9453-4.4492-4.4492-6.9453-10.477-6.9453-16.766z"/>
  <path d="m260.79 217.53-56.898 6.6992c-5.9688 0.70312-11.414 3.7461-15.137 8.4648-3.7266 4.7188-5.4219 10.723-4.7188 16.691 7.7695 65.977 33.957 288.38 41.723 354.36 0.70313 5.9688 3.7461 11.414 8.4648 15.137 4.7188 3.7227 10.723 5.418 16.691 4.7188l205.61-24.211h-164.57c-8.2695 0-16.199-3.2852-22.047-9.1289-5.8477-5.8477-9.1328-13.777-9.1289-22.047v-350.68z"/>
 </g>
</svg>