<?xml version="1.0" encoding="UTF-8"?>
<!-- Uploaded to: ICON Repo, www.iconrepo.com, Generator: ICON Repo Mixer Tools -->
<svg fill="#000000" width="800px" height="800px" version="1.1" viewBox="144 144 512 512" xmlns="http://www.w3.org/2000/svg">
 <g>
  <path d="m208.12 490.95v27.551c0 7.5117 6.0781 13.586 13.586 13.586h43.926c7.5117 0 13.586-6.0938 13.586-13.586v-17.68c-24.293-1.8125-48.461-4.4258-65.148-8.2031-2.0742-0.45703-4.0117-1.0547-5.9492-1.668z"/>
  <path d="m328.25 438.52h61.324c3.9219-2.3633 8.4688-3.8398 13.367-3.8398 5.543 0 10.691 1.7461 14.895 4.7383 4.6758-5.6836 11.793-9.3516 19.727-9.3516h9.4141v-7.0703c0-18.91 14.453-25.301 14.656-25.457-1.1328-2.8984-1.8906-5.9688-1.8906-9.2578 0-14.266 11.586-25.867 25.852-25.867h53.043c6.125 0 11.668 2.25 16.09 5.8086 9.7148-3.7148 27.789-12.266 27.789-24.418 0-16.578-18.562-19.223-33.801-18.547-8.8164 0.36328-14.895 6.4883-18.516 11.617-11.73-30.133-34.637-79.617-60.488-85.457-26.152-5.9023-68.219-11.871-103.22-11.871-35.016 0-77.066 5.9688-103.22 11.871-25.852 5.8398-48.758 55.324-60.473 85.457-3.6211-5.1328-9.6992-11.258-18.531-11.617-15.242-0.67578-33.785 1.9688-33.785 18.547 0 12.391 18.91 21.098 28.449 24.656-6.832 15.383-3.9375 36.039-0.125 57.355 4.0625 22.688 10.754 44.648 38.84 50.98 40.855 9.1953 132.99 11.523 148.86 11.523 2.1719 0 5.9023-0.03125 10.613-0.125v-27.68c0-0.70703 0.14062-1.3242 0.20312-2h-49.059c-3.1484 0-5.6992-2.5508-5.6992-5.6836v-8.6445c0-3.1172 2.5508-5.668 5.6836-5.668zm-61.844-16.199h-22.09-27.109c-21.098 0-5.0234-41.391 4.0156-41.91 9.0352-0.48828 45.199 12.547 50.727 17.586 5.5078 5.0039 2.4883 24.324-5.543 24.324zm-39.723-79.461c13.414-33.141 31.566-65.336 41.957-67.684 24.027-5.4492 64.914-11.289 97.863-11.289 32.953 0 73.824 5.8398 97.848 11.289 10.547 2.3633 28.48 34.133 41.973 67.684-46.367-6.9766-98.953-12.266-139.82-12.266-40.879 0-93.465 5.293-139.82 12.266z"/>
  <path d="m635.55 442.96h-18.641v17.223h-20.957v-6.8945c0-5.1328-3.3516-11.809-7.4766-14.879l-25.805-19.16c-4.1094-3.0391-11.668-5.5742-16.781-5.5742h-22.262v-15.809h15.02c5.3047 0 9.6211-4.2969 9.6211-9.5898 0-5.3203-4.3125-9.6211-9.6211-9.6211h-53.043c-5.3203 0-9.6367 4.2969-9.6367 9.6211 0 5.2891 4.3125 9.5898 9.6367 9.5898h15.004v15.809h-28.07c-5.1328 0-9.3203 4.2188-9.3203 9.3203v23.301h-25.617c-5.1172 0-9.3047 4.1875-9.3047 9.3203v19.934h-15.711v-15.004c0-5.3203-4.2969-9.6211-9.6211-9.6211-5.3047 0-9.6211 4.2969-9.6211 9.6211v53.043c0 5.2891 4.3125 9.5898 9.6211 9.5898 5.3203 0 9.6211-4.2969 9.6211-9.5898l-0.003906-15.039h15.711v20.875c0 5.1016 4.1875 9.2891 9.3047 9.2891h25.617l22.812 24.844c3.4805 3.7461 10.5 6.8633 15.633 6.8633h85.004c5.1172 0 9.3203-4.1875 9.3203-9.3203v-36.258h20.957v17.223h18.641c7.7305 0 13.98-6.2344 13.98-13.996v-61.133c-0.03125-7.7109-6.2812-13.977-14.012-13.977zm-92.449 35.941-39.016 50.066 13.004-40.871h-16.484l19.789-42.965h22.703l-15.727 33.77z"/>
 </g>
</svg>