<?xml version="1.0" encoding="UTF-8"?>
<!-- Uploaded to: ICON Repo, www.iconrepo.com, Generator: ICON Repo Mixer Tools -->
<svg fill="#000000" width="800px" height="800px" version="1.1" viewBox="144 144 512 512" xmlns="http://www.w3.org/2000/svg">
 <g>
  <path d="m507.55 485.84h-215.11c-4.2422 0-7.6523-3.4102-7.6523-7.6523 0-4.2422 3.4102-7.6523 7.6523-7.6523h215.14c4.2422 0 7.6523 3.4102 7.6523 7.6523 0 4.2422-3.4453 7.6523-7.6875 7.6523z"/>
  <path d="m598.97 485.84h-11.289c-4.2422 0-7.6523-3.4102-7.6523-7.6523 0-4.2422 3.4102-7.6523 7.6523-7.6523h11.289c16.867 0 30.609-13.742 30.609-30.609v-21.621c0-14.062-9.5352-26.273-23.148-29.688l-51.527-12.945c-8.0352-2.0078-15.402-6.1875-21.27-12.055l-65.238-65.238c-5.707-5.707-13.582-8.9609-21.652-8.9609h-183.51c-8.1641 0-15.879 3.1875-21.652 8.9609l-62.211 62.18c-5.7734 5.8047-8.9609 13.488-8.9609 21.652v57.715c0 16.867 13.742 30.609 30.609 30.609h11.289c4.2422 0 7.6523 3.4102 7.6523 7.6523 0 4.2422-3.4102 7.6523-7.6523 7.6523h-11.285c-25.316 0-45.918-20.598-45.918-45.918v-57.715c0-12.277 4.7812-23.789 13.457-32.461l62.211-62.211c8.6719-8.6719 20.215-13.457 32.461-13.457h183.51c12.277 0 23.789 4.7812 32.461 13.457l65.238 65.242c3.9219 3.9219 8.832 6.6953 14.191 8.0352l51.527 12.945c20.438 5.1328 34.723 23.438 34.723 44.547v21.621c0 25.316-20.598 45.914-45.914 45.914z"/>
  <path d="m213.24 388.52c-5.6758 0-10.777-3.4102-12.945-8.6406-2.168-5.2617-0.98828-11.258 3.0273-15.305l49.457-49.457c3.793-3.793 9.0547-5.9609 14.445-5.9609h175.57c5.4531 0 10.586 2.1367 14.445 5.9961l49.457 49.453c4.0195 4.0195 5.2305 10.043 3.0273 15.305-2.168 5.2617-7.2695 8.6719-12.977 8.6719zm0.89453-13.105m2.168-2.1992h277.32l-47.258-47.258c-0.95703-0.95703-2.2305-1.5-3.6016-1.5h-175.57c-1.3398 0-2.6484 0.54297-3.6016 1.5z"/>
  <path d="m295.38 388.52c-4.2422 0-7.6523-3.4102-7.6523-7.6523v-64.062c0-4.2422 3.4102-7.6523 7.6523-7.6523 4.2422 0 7.6523 3.4102 7.6523 7.6523v64.062c0 4.2422-3.4453 7.6523-7.6523 7.6523z"/>
  <path d="m363.55 388.52c-4.2422 0-7.6523-3.4102-7.6523-7.6523v-64.062c0-4.2422 3.4102-7.6523 7.6523-7.6523 4.2422 0 7.6523 3.4102 7.6523 7.6523v64.062c0 4.2422-3.4102 7.6523-7.6523 7.6523z"/>
  <path d="m419.8 416.64h-17.953c-4.2422 0-7.6523-3.4102-7.6523-7.6523 0-4.2422 3.4102-7.6523 7.6523-7.6523h17.953c4.2422 0 7.6523 3.4102 7.6523 7.6523 0 4.2383-3.4453 7.6523-7.6523 7.6523z"/>
  <path d="m252.36 525.92c-26.305 0-47.703-21.395-47.703-47.703 0-26.305 21.398-47.734 47.703-47.734 26.305 0 47.703 21.395 47.703 47.703s-21.398 47.734-47.703 47.734zm0-80.129c-17.855 0-32.398 14.539-32.398 32.398 0 17.855 14.543 32.426 32.398 32.426s32.398-14.539 32.398-32.398c0-17.855-14.512-32.426-32.398-32.426z"/>
  <path d="m252.36 501.05c-12.594 0-22.832-10.234-22.832-22.832 0-12.594 10.234-22.832 22.832-22.832 12.594 0 22.832 10.234 22.832 22.832s-10.238 22.832-22.832 22.832zm0-30.387c-4.1445 0-7.5234 3.3789-7.5234 7.5234 0 4.1445 3.3789 7.5234 7.5234 7.5234s7.5234-3.3789 7.5234-7.5234c0.035156-4.1445-3.3477-7.5234-7.5234-7.5234z"/>
  <path d="m547.63 525.92c-26.305 0-47.703-21.395-47.703-47.703 0-26.305 21.395-47.703 47.703-47.703 26.305 0 47.703 21.395 47.703 47.703s-21.395 47.703-47.703 47.703zm0-80.129c-17.855 0-32.398 14.539-32.398 32.398 0 17.855 14.539 32.398 32.398 32.398 17.855 0 32.398-14.539 32.398-32.398s-14.539-32.398-32.398-32.398z"/>
  <path d="m547.63 501.05c-12.594 0-22.832-10.234-22.832-22.832 0-12.594 10.234-22.832 22.832-22.832 12.594 0 22.832 10.234 22.832 22.832s-10.234 22.832-22.832 22.832zm0-30.387c-4.1445 0-7.5234 3.3789-7.5234 7.5234 0 4.1445 3.3789 7.5234 7.5234 7.5234 4.1445 0 7.5234-3.3789 7.5234-7.5234 0.003906-4.1445-3.3789-7.5234-7.5234-7.5234z"/>
  <path d="m637.23 435.68h-23.82c-4.2422 0-7.6523-3.4102-7.6523-7.6523 0-4.2422 3.4102-7.6523 7.6523-7.6523h23.82c4.2422 0 7.6523 3.4102 7.6523 7.6523 0 4.2422-3.4102 7.6523-7.6523 7.6523z"/>
  <path d="m326.02 416.64h-17.953c-4.2422 0-7.6523-3.4102-7.6523-7.6523 0-4.2422 3.4102-7.6523 7.6523-7.6523l17.953-0.003906c4.2422 0 7.6523 3.4102 7.6523 7.6523 0.003906 4.2422-3.4102 7.6562-7.6523 7.6562z"/>
 </g>
</svg>