<?xml version="1.0" encoding="UTF-8"?>
<!-- Uploaded to: ICON Repo, www.iconrepo.com, Generator: ICON Repo Mixer Tools -->
<svg fill="#000000" width="800px" height="800px" version="1.1" viewBox="144 144 512 512" xmlns="http://www.w3.org/2000/svg">
 <g>
  <path d="m343.74 349.93-62.977-52.48c-2.1406-1.7812-4.9062-2.6406-7.6797-2.3828-2.7773 0.25391-5.3359 1.6016-7.1172 3.7461-3.7109 4.4648-3.1016 11.09 1.3633 14.801l53.32 44.398-53.32 44.398c-2.1445 1.7773-3.4961 4.3398-3.7539 7.1133-0.25391 2.7773 0.60547 5.543 2.3906 7.6836 1.9961 2.3984 4.9609 3.7852 8.082 3.7812 2.4531 0.003906 4.8281-0.85156 6.7148-2.4141l62.977-52.48c2.4062-1.9961 3.8008-4.957 3.8008-8.082s-1.3945-6.0898-3.8008-8.082z"/>
  <path d="m525.95 400h-167.93c-5.7969 0-10.496 4.6992-10.496 10.496s4.6992 10.496 10.496 10.496h167.93c5.7969 0 10.496-4.6992 10.496-10.496s-4.6992-10.496-10.496-10.496z"/>
  <path d="m599.42 494.46v-251.9c0-2.7852-1.1055-5.4531-3.0742-7.4219s-4.6367-3.0742-7.4219-3.0742h-377.86c-5.7969 0-10.496 4.6992-10.496 10.496v251.9c-8.3516 0-16.359 3.3203-22.266 9.2227-5.9062 5.9062-9.2227 13.918-9.2227 22.266 0 11.137 4.4219 21.816 12.297 29.688 7.875 7.875 18.551 12.297 29.688 12.297h377.86c11.137 0 21.816-4.4219 29.688-12.297 7.875-7.8711 12.297-18.551 12.297-29.688 0-8.3477-3.3164-16.359-9.2227-22.266-5.9023-5.9023-13.914-9.2227-22.266-9.2227zm-377.86-241.41h356.86v209.92h-356.86zm367.36 293.89h-377.86c-5.5664 0-10.906-2.2109-14.844-6.1484-3.9375-3.9336-6.1484-9.2734-6.1484-14.844 0-5.7969 4.6992-10.496 10.496-10.496h140.44l7.6602 15.219v0.003906c1.7812 3.5273 5.3906 5.7578 9.3438 5.7695h83.969c3.9492-0.011718 7.5625-2.2422 9.3398-5.7695l7.6602-15.223h140.44c2.7852 0 5.4531 1.1094 7.4219 3.0742 1.9688 1.9688 3.0742 4.6406 3.0742 7.4219 0 5.5703-2.2109 10.91-6.1484 14.844-3.9375 3.9375-9.2734 6.1484-14.844 6.1484z"/>
 </g>
</svg>