<?xml version="1.0" encoding="UTF-8"?>
<!-- Uploaded to: ICON Repo, www.iconrepo.com, Generator: ICON Repo Mixer Tools -->
<svg fill="#000000" width="800px" height="800px" version="1.1" viewBox="144 144 512 512" xmlns="http://www.w3.org/2000/svg">
 <g>
  <path d="m601.06 321.98c-6.2578-15.418-17.406-28.32-31.449-36.871 4.8086-10.762 7.5586-22.672 7.5586-35.191 0-47.781-38.855-86.562-86.562-86.562-34.73 0-64.809 20.535-78.547 50.152-13.285-10.914-30.23-17.328-48.703-17.328-42.824 0-77.48 34.656-77.48 77.48 0 1.375 0 2.75 0.078125 4.1211-7.8633-2.5938-16.184-4.0469-24.887-4.0469-32.594 0-60.457 20.152-71.906 48.625 1.9844-0.23047 3.8945-0.38281 5.8789-0.38281h103.97c26.336 0 47.785 21.375 47.785 47.711v59.008h45.801l-0.003906-66.867c-8.9297-3.1289-15.266-11.527-15.266-21.527 0-12.594 10.152-22.902 22.902-22.902 12.594 0 22.902 10.305 22.902 22.902 0 9.9219-6.4141 18.32-15.266 21.527v66.871h45.344v-59.008c0-26.336 21.375-47.711 47.711-47.711z"/>
  <path d="m299.01 337.25h-103.97c-17.938 0-32.52 14.578-32.52 32.52v234.43c0.078125 17.859 14.582 32.441 32.52 32.441h103.97c17.938 0 32.52-14.578 32.52-32.52v-234.42c0-17.941-14.582-32.445-32.52-32.445zm-88.777 198.62c-5.418 0-9.8477-4.3516-9.8477-9.8477 0-5.418 4.3516-9.8477 9.8477-9.8477 5.418 0 9.8477 4.4258 9.8477 9.8477-0.078125 5.418-4.4297 9.8477-9.8477 9.8477zm39.848 74.73c-13.359 0-24.199-10.84-24.199-24.121s10.84-24.121 24.199-24.121c13.281 0 24.121 10.84 24.121 24.121 0 13.359-10.84 24.121-24.121 24.121zm-11.68-84.578c0-5.418 4.4258-9.8477 9.8477-9.8477 5.418 0 9.8477 4.4258 9.8477 9.8477 0 5.418-4.3516 9.8477-9.8477 9.8477-5.4219 0-9.8477-4.4297-9.8477-9.8477zm47.938 9.8477c-5.418 0-9.8477-4.3516-9.8477-9.8477 0-5.418 4.3516-9.8477 9.8477-9.8477 5.418 0 9.8477 4.4258 9.8477 9.8477-0.078125 5.418-4.4297 9.8477-9.8477 9.8477zm5.418-46.871h-89.387c-4.1992 0-7.6328-3.4336-7.6328-7.6328 0-4.1992 3.4336-7.6328 7.6328-7.6328h89.465c4.1992 0 7.6328 3.4336 7.6328 7.6328 0 4.1992-3.4336 7.6328-7.7109 7.6328zm0-23.816h-89.387c-4.1992 0-7.6328-3.4336-7.6328-7.6328 0-4.1992 3.4336-7.6328 7.6328-7.6328h89.465c4.1992 0 7.6328 3.4336 7.6328 7.6328 0 4.1992-3.4336 7.6328-7.7109 7.6328zm0-23.816h-89.387c-4.1992 0-7.6328-3.4336-7.6328-7.6328s3.4336-7.6328 7.6328-7.6328h89.465c4.1992 0 7.6328 3.4336 7.6328 7.6328s-3.4336 7.6328-7.7109 7.6328zm10.84-42.211h-109.08v-27.633h109.08z"/>
  <path d="m604.96 337.25h-103.97c-17.938 0-32.52 14.578-32.52 32.52v234.43c0 17.938 14.578 32.52 32.52 32.52h103.97c17.938 0 32.52-14.578 32.52-32.52v-234.5c-0.078124-17.941-14.582-32.445-32.52-32.445zm-89.844 198.62c-5.418 0-9.8477-4.3516-9.8477-9.8477 0-5.418 4.3516-9.8477 9.8477-9.8477 5.418 0 9.8477 4.4258 9.8477 9.8477-0.003907 5.418-4.4297 9.8477-9.8477 9.8477zm39.844 74.73c-13.359 0-24.199-10.84-24.199-24.121s10.84-24.121 24.199-24.121c13.281 0 24.121 10.84 24.121 24.121 0 13.359-10.836 24.121-24.121 24.121zm-11.68-84.578c0-5.418 4.4258-9.8477 9.8477-9.8477 5.418 0 9.8477 4.4258 9.8477 9.8477 0 5.418-4.3516 9.8477-9.8477 9.8477-5.418 0-9.8477-4.4297-9.8477-9.8477zm47.941 9.8477c-5.418 0-9.8477-4.3516-9.8477-9.8477 0-5.418 4.3516-9.8477 9.8477-9.8477 5.418 0 9.8477 4.4258 9.8477 9.8477-0.003906 5.418-4.4297 9.8477-9.8477 9.8477zm5.418-46.871h-89.387c-4.1992 0-7.6328-3.4336-7.6328-7.6328 0-4.1992 3.4336-7.6328 7.6328-7.6328h89.465c4.1992 0 7.6328 3.4336 7.6328 7.6328 0 4.1992-3.4375 7.6328-7.7109 7.6328zm0-23.816h-89.387c-4.1992 0-7.6328-3.4336-7.6328-7.6328 0-4.1992 3.4336-7.6328 7.6328-7.6328h89.465c4.1992 0 7.6328 3.4336 7.6328 7.6328 0 4.1992-3.4375 7.6328-7.7109 7.6328zm0-23.816h-89.387c-4.1992 0-7.6328-3.4336-7.6328-7.6328s3.4336-7.6328 7.6328-7.6328h89.465c4.1992 0 7.6328 3.4336 7.6328 7.6328s-3.4375 7.6328-7.7109 7.6328zm10.84-42.211h-109.08v-27.633h109.08z"/>
  <path d="m400.23 482.59c-10 0-18.398 6.4141-21.527 15.266h-31.906v15.266h31.906c3.1289 8.8555 11.527 15.266 21.527 15.266 9.9219 0 18.32-6.4141 21.527-15.266h31.449v-15.266h-31.449c-3.207-8.8555-11.602-15.266-21.527-15.266z"/>
  <path d="m392.59 468.09c2.4414-0.53516 5.0391-0.76172 7.6328-0.76172s5.1914 0.23047 7.6328 0.76172v-39.391h-15.266z"/>
 </g>
</svg>