<?xml version="1.0" encoding="UTF-8"?>
<!-- Uploaded to: ICON Repo, www.iconrepo.com, Generator: ICON Repo Mixer Tools -->
<svg fill="#000000" width="800px" height="800px" version="1.1" viewBox="144 144 512 512" xmlns="http://www.w3.org/2000/svg">
 <g>
  <path d="m410.47 483.09-73.449-25.707v-114.78l73.449-25.707c3.1562-1.1055 5.2695-4.0859 5.2695-7.4297v-110.21c0-3.3438-2.1133-6.3281-5.2695-7.4297l-78.719-27.551c-1.6836-0.59375-3.5195-0.59375-5.2031 0l-78.719 27.551c-3.1602 1.1016-5.2734 4.082-5.2734 7.4258v100.94l-73.773 29.508c-2.9883 1.1992-4.9492 4.0938-4.9492 7.3125v125.95c0 3.2227 1.9609 6.1133 4.9453 7.3125l73.777 29.508v100.94c0 3.3438 2.1133 6.3281 5.2695 7.4336l78.719 27.551c0.83984 0.29297 1.7227 0.4375 2.6016 0.4375 0.87891 0 1.7617-0.14453 2.6016-0.4375l78.719-27.551c3.1602-1.1094 5.2734-4.0898 5.2734-7.4375v-110.21c0-3.3438-2.1133-6.3281-5.2695-7.4336zm-81.324-303.04 70.848 24.797v99.039l-70.664 24.73-71.031-28.414v-95.355zm-149.57 162.3 70.848-28.34 70.848 28.34v115.29l-70.852 28.34-70.844-28.336zm220.42 252.79-70.848 24.801-70.848-24.801-0.003907-95.352 71.039-28.414 70.66 24.734z"/>
  <path d="m368.51 392.13c-4.3477 0-7.8711 3.5234-7.8711 7.8711s3.5234 7.8711 7.8711 7.8711h133.82c4.3477 0 7.8711-3.5234 7.8711-7.8711s-3.5234-7.8711-7.8711-7.8711z"/>
  <path d="m439.36 281.92c2.1211 0 4.2344-0.85156 5.7891-2.5312l19.461-21.082h69.219c4.3477 0 7.8711-3.5234 7.8711-7.8711s-3.5234-7.8711-7.8711-7.8711h-72.668c-2.1992 0-4.293 0.91797-5.7852 2.5312l-21.797 23.617c-2.9492 3.1953-2.75 8.1758 0.44531 11.125 1.5156 1.3906 3.4297 2.082 5.3359 2.082z"/>
  <path d="m628.29 179.58h-62.977c-4.3477 0-7.8711 3.5234-7.8711 7.8711v110.21c0 4.3477 3.5234 7.8711 7.8711 7.8711h62.977c4.3477 0 7.8711-3.5234 7.8711-7.8711v-110.21c0-4.3438-3.5273-7.8711-7.8711-7.8711zm-7.875 110.21h-47.23v-94.465h47.23z"/>
  <path d="m533.82 541.7h-69.219l-19.461-21.086c-2.9414-3.1836-7.9219-3.3906-11.125-0.4375-3.1953 2.9453-3.3945 7.9258-0.44531 11.125l21.797 23.617c1.4922 1.6133 3.5859 2.5273 5.7852 2.5273h72.668c4.3477 0 7.8711-3.5195 7.8711-7.8711 0-4.3555-3.5234-7.875-7.8711-7.875z"/>
  <path d="m628.29 494.46h-62.977c-4.3477 0-7.8711 3.5195-7.8711 7.8711v110.21c0 4.3516 3.5234 7.8711 7.8711 7.8711h62.977c4.3477 0 7.8711-3.5195 7.8711-7.8711v-110.21c0-4.3516-3.5273-7.8711-7.8711-7.8711zm-7.875 110.21h-47.23v-94.465h47.23z"/>
  <path d="m628.29 360.64h-94.465c-4.3477 0-7.8711 3.5234-7.8711 7.8711v62.977c0 4.3516 3.5234 7.8711 7.8711 7.8711h94.465c4.3477 0 7.8711-3.5195 7.8711-7.8711v-62.977c0-4.3477-3.5273-7.8711-7.8711-7.8711zm-7.875 62.977h-78.719v-47.23h78.719z"/>
 </g>
</svg>