<?xml version="1.0" encoding="UTF-8"?>
<!-- Uploaded to: ICON Repo, www.iconrepo.com, Generator: ICON Repo Mixer Tools -->
<svg fill="#000000" width="800px" height="800px" version="1.1" viewBox="144 144 512 512" xmlns="http://www.w3.org/2000/svg">
 <path d="m352.77 163.84c-4.3594 0-7.8711 3.5117-7.8711 7.8711v62.977c0 4.3594 3.5117 7.8711 7.8711 7.8711h39.344v15.605h-15.742c-10.508 0-10.508 15.758 0 15.758h47.246c10.508 0 10.508-15.758 0-15.758h-15.758v-15.605h39.375c4.3594 0 7.8711-3.5117 7.8711-7.8711v-62.977c0-4.3594-3.5117-7.8711-7.8711-7.8711zm-35.055 49.445c-45.098 20.777-80.98 58.078-99.891 104.18-1.6602 4.0312 0.26953 8.6406 4.3047 10.285 4.0234 1.6602 8.6328-0.26953 10.285-4.2891 17.391-42.391 50.453-76.785 91.926-95.895 3.9492-1.8242 5.6719-6.5078 3.8438-10.453-1.3359-2.8945-4.2852-4.6992-7.4727-4.5664-1.0391 0.058594-2.0586 0.29688-3 0.73828zm154.12 3.8281c-1.8281 3.9453-0.11719 8.625 3.8281 10.453 41.473 19.109 74.539 53.504 91.926 95.895 1.6523 4.0273 6.2617 5.9492 10.285 4.2891 4.0117-1.668 5.9102-6.2734 4.2422-10.285-18.914-46.102-54.73-83.402-99.832-104.18-0.9375-0.44141-1.9492-0.69141-2.9844-0.73828-3.1875-0.11719-6.1367 1.6719-7.4727 4.5664zm-158.43 112.04c-4.3594 0-7.8711 3.5117-7.8711 7.8711v47.23c0 4.3594 3.5117 7.8711 7.8711 7.8711l55.105 0.003906v-62.977zm70.848 0v62.977h102.34c4.3594 0 7.8711-3.5117 7.8711-7.8711v-47.234c0-4.3594-3.5117-7.8711-7.8711-7.8711zm149.57 15.742c-4.3594 0-7.8711 3.5117-7.8711 7.8711v62.977c0 4.3594 3.5117 7.8711 7.8711 7.8711h39.344v15.605h-15.746c-10.508 0-10.508 15.758 0 15.758h47.246c10.508 0 10.508-15.758 0-15.758h-15.758v-15.602h39.375c4.3594 0 7.8711-3.5117 7.8711-7.8711l0.003906-62.98c0-4.3594-3.5117-7.8711-7.8711-7.8711zm-362.11 0.0625c-4.3594 0-7.8711 3.5117-7.8711 7.8711v62.977c0 4.3594 3.5117 7.8711 7.8711 7.8711l39.344 0.003907v15.621h-15.746c-10.73-0.23828-10.73 15.98 0 15.742h47.25c10.73 0.23828 10.73-15.98 0-15.742h-15.762v-15.621h39.379c4.3594 0 7.8711-3.5117 7.8711-7.8711v-62.98c0-4.3594-3.5117-7.8711-7.8711-7.8711zm236.16 7.7812h62.977c10.5 0 10.5 15.758 0 15.758h-62.977c-10.5 0-10.5-15.758 0-15.758zm-62.977 7.9023c0 4.3477-3.5234 7.8711-7.8711 7.8711-4.3477 0-7.875-3.5234-7.875-7.8711s3.5234-7.8711 7.8711-7.8711c4.3477 0 7.8711 3.5234 7.8711 7.8711zm-31.488 47.23c-4.3594 0-7.8711 3.5117-7.8711 7.8711v47.234c0 4.3594 3.5117 7.8711 7.8711 7.8711h55.105v-62.977zm70.848 0v62.977h102.34c4.3594 0 7.8711-3.5117 7.8711-7.8711v-47.234c0-4.3594-3.5117-7.8711-7.8711-7.8711zm23.617 23.586h62.977c10.5 0 10.5 15.758 0 15.758h-62.977c-10.5 0-10.5-15.758 0-15.758zm-62.977 7.9023c0 4.3477-3.5234 7.8711-7.8711 7.8711-4.3477 0-7.8711-3.5234-7.8711-7.8711s3.5234-7.8711 7.8711-7.8711c4.3477 0 7.8711 3.5234 7.8711 7.8711zm220.43 32.301c-1.9922 0.64062-3.6445 2.043-4.5977 3.9062-18.414 35.406-48.191 63.953-84.484 80.828-3.9453 1.8281-5.6602 6.5117-3.8281 10.453 1.8242 3.9492 6.5078 5.6719 10.453 3.8438 39.469-18.352 71.801-49.375 91.82-87.867 2.0273-3.8555 0.53906-8.6211-3.3203-10.641-1.1055-0.57812-2.3359-0.88281-3.582-0.89062-0.83203-0.007813-1.6641 0.11719-2.4609 0.36719zm-336.7 0.52344c-3.875 2.0039-5.3867 6.7734-3.3672 10.641 20.02 38.496 52.414 69.52 91.883 87.867 3.9492 1.8281 8.6328 0.11719 10.453-3.8438 1.8281-3.9453 0.11719-8.625-3.8281-10.453-36.297-16.879-66.09-45.422-84.5-80.828-1.4609-2.8398-4.4922-4.5156-7.6719-4.2422-1.0352 0.089843-2.043 0.38281-2.9648 0.86328zm124.15 53.891c-4.3594 0-7.8711 3.5117-7.8711 7.8711v62.977c0 4.3594 3.5117 7.8711 7.8711 7.8711h39.344v15.621h-15.758c-10.266 0.23047-10.266 15.516 0 15.742h47.246c10.266-0.23047 10.266-15.516 0-15.742h-15.742v-15.621h39.375c4.3594 0 7.8711-3.5117 7.8711-7.8711v-62.977c0-4.3594-3.5117-7.8711-7.8711-7.8711z"/>
</svg>