<?xml version="1.0" encoding="UTF-8"?>
<!-- Uploaded to: ICON Repo, www.iconrepo.com, Generator: ICON Repo Mixer Tools -->
<svg fill="#000000" width="800px" height="800px" version="1.1" viewBox="144 144 512 512" xmlns="http://www.w3.org/2000/svg">
 <path d="m609.92 195.27h-419.84c-5.8242 0.003906-10.547 4.7227-10.547 10.547v388.36c0 5.8242 4.7227 10.543 10.547 10.547h419.84c5.8242-0.003906 10.547-4.7227 10.547-10.547v-388.36c0-5.8242-4.7227-10.543-10.547-10.547zm-409.29 388.35v-367.25h398.75v73.418h-335.82c-5.7969 0-10.496 4.6992-10.496 10.496s4.6992 10.496 10.496 10.496h335.82v272.85zm299.08-346.32c5.5742 0.082031 10.688 3.0977 13.453 7.9375 2.7617 4.8398 2.7617 10.777 0 15.617-2.7617 4.8359-7.8789 7.8555-13.449 7.9336-5.5742-0.078125-10.688-3.0938-13.453-7.9336-2.7617-4.8398-2.7617-10.777 0-15.617 2.7656-4.8398 7.8789-7.8555 13.449-7.9375zm52.48 0c5.5742 0.082031 10.688 3.0977 13.453 7.9375 2.7617 4.8398 2.7617 10.777 0 15.617-2.7656 4.8359-7.8789 7.8555-13.449 7.9336-5.5742-0.078125-10.688-3.0938-13.453-7.9336-2.7617-4.8398-2.7617-10.777 0-15.617 2.7656-4.8398 7.8789-7.8555 13.449-7.9375zm-104.96 0h0.003907c5.5703 0.082031 10.684 3.0977 13.449 7.9375 2.7617 4.8398 2.7617 10.777 0 15.617-2.7617 4.8359-7.8789 7.8555-13.449 7.9336-5.5742-0.078125-10.688-3.0938-13.453-7.9336-2.7617-4.8398-2.7617-10.777 0-15.617 2.7656-4.8398 7.8789-7.8555 13.453-7.9375zm-47.227 317.07c-24.598-0.039062-48.172-9.8359-65.555-27.234-17.383-17.398-27.152-40.984-27.168-65.578 0.082031-5.7422 4.7578-10.352 10.496-10.352 5.7383 0 10.414 4.6094 10.496 10.352 0.007813 19.027 7.5625 37.277 21.012 50.742 13.445 13.465 31.688 21.043 50.715 21.078 87.941-2.0664 97.449-126.84 11.473-142.55l15.18 15.18c3.9609 4.1211 3.8984 10.652-0.14453 14.695-4.043 4.043-10.574 4.1094-14.695 0.14453l-34.113-34.113v0.003906c-2.2773-2.3164-3.3633-5.5469-2.9492-8.7656 0.41797-3.2188 2.2891-6.0703 5.082-7.7266l43.879-25.574c4.9961-2.7773 11.297-1.0508 14.176 3.8867 2.8828 4.9414 1.2812 11.277-3.5977 14.254l-14.195 8.2734c106.73 26.023 90.746 180.54-20.09 183.28z"/>
</svg>