<?xml version="1.0" encoding="UTF-8"?>
<!-- Uploaded to: ICON Repo, www.iconrepo.com, Generator: ICON Repo Mixer Tools -->
<svg fill="#000000" width="800px" height="800px" version="1.1" viewBox="144 144 512 512" xmlns="http://www.w3.org/2000/svg">
 <g>
  <path d="m364.96 604.8h58.777c10.152 0 18.473-8.3203 18.473-18.473 0-10.152-8.2461-18.473-18.473-18.473h-58.777c-10.152 0-18.473 8.2461-18.473 18.473 0 10.152 8.3203 18.473 18.473 18.473zm0-24.047h58.777c3.0547 0 5.4961 2.4414 5.4961 5.4961 0 3.0547-2.4414 5.4961-5.4961 5.4961h-58.777c-3.0547 0-5.4961-2.5195-5.4961-5.4961 0-2.9766 2.4414-5.4961 5.4961-5.4961z"/>
  <path d="m633.58 314.73c3.8164-7.5586 5.7266-15.727 5.7266-24.273 0-21.145-11.91-40-30.762-49.082-3.8945-21.832-22.672-37.863-45.266-37.863-5.1133 0-10.23 0.83984-15.039 2.5195-12.441-22.441-36.184-36.641-62.289-36.641-37.863 0-68.855 29.77-70.992 67.176-12.137 1.832-22.902 7.6328-30.992 16.031l-158.55-0.003906c-21.832 0-39.617 17.785-39.617 39.617v249.84h-15.117c-5.4961 0-10 4.5039-10 10v31.832c0 25.727 20.914 46.641 46.641 46.641h373.89c25.727 0 46.641-20.914 46.641-46.641v-31.832c0-5.4961-4.5039-10-10-10h-15.113v-202.06c13.438-4.0469 24.734-13.055 30.84-25.266zm-211.98-65.727c1.7539-0.078124 3.3594-0.83984 4.582-2.1367 1.1445-1.2969 1.7539-3.0547 1.6797-4.7344v-1.5273c0-32.137 26.105-58.242 58.168-58.242 23.055 0 43.969 13.664 53.281 34.73 0.6875 1.6016 2.0625 2.9023 3.8164 3.5117 1.6797 0.60938 3.5117 0.45703 5.1133-0.38281 4.6562-2.4414 9.6953-3.6641 15.113-3.6641 17.176 0 31.297 12.902 32.898 29.922 0.23047 2.4414 1.7539 4.5039 4.0469 5.418 15.879 6.3359 26.105 21.527 26.105 38.625 0 6.4883-1.4492 12.746-4.3516 18.473-6.2578 12.594-20.074 20.688-35.266 20.688h-0.15234l-164.88-0.6875c-20.609-0.078125-38.09-15.344-39.848-34.656-0.078125-1.2227-0.15234-2.5195-0.15234-3.8164-0.074218-22.512 17.48-40.754 39.848-41.52zm193.43 334.88c0 18.625-15.113 33.738-33.738 33.738h-373.89c-18.625 0-33.738-15.113-33.738-33.738v-28.855h441.37zm-25.117-41.832h-391.14v-249.84c0-14.734 11.984-26.641 26.641-26.641h149.31c-3.8164 7.4805-6.0312 15.953-6.0312 24.887 0 1.6797 0.078125 3.2812 0.23047 4.9609 2.3672 25.953 25.496 46.41 52.672 46.488l164.88 0.6875h0.23047c1.0703 0 2.1367-0.15234 3.207-0.23047z"/>
  <path d="m408.85 411.52c0-4.9609-3.207-9.3125-7.8633-10.84l-10.688-3.4336c-1.5273-5.4961-3.6641-10.762-6.4883-15.727l5.1133-10c2.2891-4.4258 1.4492-9.6953-2.0625-13.207l-6.9453-6.9453c-3.5117-3.5117-8.8555-4.3516-13.207-2.0625l-10 5.1133c-4.9609-2.8242-10.152-4.9609-15.727-6.4883l-3.4336-10.688c-1.5273-4.7344-5.8789-7.8633-10.84-7.8633h-9.8477c-4.9609 0-9.3125 3.207-10.84 7.8633l-3.4336 10.609c-5.4961 1.5273-10.762 3.7422-15.727 6.4883l-10-5.1133c-4.4258-2.2891-9.6953-1.375-13.207 2.0625l-6.9453 6.9453c-3.5117 3.5117-4.3516 8.8555-2.0625 13.207l5.1133 10c-2.8242 4.8867-4.9609 10.152-6.4883 15.727l-10.609 3.4336c-4.7344 1.5273-7.8633 5.8789-7.8633 10.84v9.8477c0 4.9609 3.1289 9.3125 7.8633 10.84l10.609 3.4336c1.5273 5.418 3.6641 10.688 6.4883 15.727l-5.1133 9.9219c-2.2891 4.4258-1.4492 9.6953 2.0625 13.207l6.9453 6.9453c3.5117 3.5117 8.8555 4.3516 13.207 2.0625l10-5.1133c4.9609 2.8242 10.23 4.9609 15.727 6.4883l3.4336 10.609c1.5273 4.7344 5.8789 7.8633 10.84 7.8633h9.8477c4.9609 0 9.3125-3.207 10.84-7.8633l3.4336-10.609c5.4961-1.5273 10.762-3.7422 15.727-6.4883l10 5.1133c4.4258 2.2891 9.6953 1.375 13.207-2.0625l6.9453-6.9453c3.5117-3.5117 4.3516-8.8555 2.0625-13.207l-5.1133-10c2.8242-4.8867 4.9609-10.152 6.4883-15.727l10.609-3.4336c4.7344-1.5273 7.8633-5.8789 7.8633-10.84l0.003906-9.6914zm-12.898 8.7031-12.977 4.1992c-2.2148 0.6875-3.8164 2.5195-4.3516 4.7344-1.4492 6.6406-4.0469 12.824-7.6328 18.398-1.2227 1.9102-1.375 4.4258-0.30469 6.4883l6.2578 12.137-5.3438 5.3438-12.137-6.2578c-2.0625-1.0703-4.5039-0.91797-6.4141 0.30469-5.5742 3.5859-11.754 6.1836-18.398 7.6328-2.2148 0.53516-4.0469 2.1367-4.7344 4.3516l-4.1992 12.977h-7.6328l-4.1992-12.977c-0.6875-2.2148-2.5195-3.8164-4.7344-4.3516-6.4883-1.4492-12.746-3.9688-18.473-7.6328-1.9102-1.2227-4.3516-1.2969-6.4141-0.30469l-12.137 6.1836-5.3438-5.3438 6.1836-12.137c1.0703-2.0625 0.91797-4.5039-0.30469-6.4141-3.6641-5.7266-6.1836-11.984-7.6328-18.473-0.45703-2.2148-2.1367-4.0469-4.3516-4.7344l-12.977-4.1992v-7.6328l12.977-4.1992c2.2148-0.6875 3.8164-2.5195 4.3516-4.7344 1.4492-6.6406 4.0469-12.824 7.6328-18.398 1.2227-1.9102 1.375-4.4258 0.30469-6.4883l-6.2578-12.137 5.3438-5.3438 12.137 6.2578c2.0625 1.0703 4.5039 0.91797 6.4141-0.30469 5.5742-3.5859 11.754-6.1836 18.398-7.6328 2.2148-0.53516 4.0469-2.1367 4.7344-4.3516l4.1992-12.977h7.6328l4.1992 12.977c0.6875 2.2148 2.5195 3.8164 4.7344 4.3516 6.5664 1.4492 12.746 4.0469 18.398 7.6328 1.9102 1.2227 4.4258 1.375 6.4141 0.30469l12.137-6.2578 5.3438 5.3438-6.2578 12.137c-1.0703 2.0625-0.91797 4.5039 0.30469 6.4883 3.5859 5.5742 6.1836 11.754 7.6328 18.398 0.45703 2.2148 2.1367 4.0469 4.3516 4.7344l12.977 4.1992-0.003907 7.707z"/>
  <path d="m321.83 380.99c-19.543 0-35.496 15.879-35.496 35.418 0 19.543 15.953 35.496 35.496 35.496s35.418-15.879 35.418-35.496c0-19.543-15.875-35.418-35.418-35.418zm0 58.012c-12.441 0-22.52-10.078-22.52-22.52s10.152-22.52 22.52-22.52c12.441 0 22.52 10.078 22.52 22.52-0.078124 12.367-10.152 22.52-22.52 22.52z"/>
  <path d="m529.16 438.09-6.9453-2.2148c-1.0703-3.5859-2.4414-6.9453-4.1992-10.23l3.3594-6.4883c1.9844-3.8945 1.2969-8.625-1.832-11.754l-5.1133-5.1133c-3.1289-3.1289-7.7852-3.8164-11.68-1.832l-6.4883 3.3594c-3.207-1.7539-6.6406-3.207-10.23-4.1992l-2.2148-6.9453c-1.375-4.1992-5.1914-6.9453-9.6172-6.9453h-7.25c-4.4258 0-8.2461 2.8242-9.6172 6.9453l-2.2148 6.9453c-3.5859 1.0703-6.9453 2.4414-10.23 4.1992l-6.4883-3.3594c-3.8945-1.9844-8.625-1.2969-11.754 1.832l-5.1133 5.1133c-3.1289 3.1289-3.8164 7.7852-1.832 11.754l3.3594 6.4883c-1.7539 3.207-3.207 6.6406-4.1992 10.152l-6.9453 2.2148c-4.1992 1.375-6.9453 5.1914-6.9453 9.6172v7.25c0 4.4258 2.8242 8.2461 6.9453 9.6172l6.9453 2.2148c1.0703 3.5117 2.4414 6.9453 4.1992 10.23l-3.2812 6.4883c-1.9844 3.8945-1.2227 8.625 1.832 11.68l5.1133 5.1133c3.1289 3.1289 7.7852 3.8945 11.754 1.832l6.4883-3.2812c3.2812 1.7539 6.7188 3.207 10.23 4.1992l2.2148 6.9453c1.375 4.1992 5.1914 6.9453 9.6172 6.9453h7.25c4.3516 0 8.2461-2.8242 9.6172-6.9453l2.2148-6.9453c3.5859-1.0703 6.9453-2.4414 10.23-4.1992l6.4883 3.3594c3.8945 1.9844 8.625 1.2227 11.68-1.832l5.1133-5.1133c3.1289-3.1289 3.8164-7.7852 1.832-11.754l-3.3594-6.4883c1.7539-3.207 3.207-6.6406 4.1992-10.152l6.9453-2.2148c4.1992-1.2969 7.0234-5.1914 7.0234-9.6172v-7.25c-0.078124-4.4297-2.9023-8.3242-7.1016-9.6211zm-5.9531 14.73-8.3203 2.6719c-2.2148 0.6875-3.8164 2.5195-4.3516 4.7344-1.0703 4.6562-2.8242 9.0078-5.418 12.977-1.2227 1.9102-1.375 4.4258-0.30469 6.4141l3.9688 7.7852-2.1367 2.1367-7.7852-3.9688c-2.0625-1.0703-4.5039-0.91797-6.4141 0.30469-3.9688 2.5195-8.3203 4.3516-12.977 5.418-2.2148 0.53516-4.0469 2.1367-4.7344 4.3516l-2.6719 8.3203h-3.0547l-2.6719-8.3203c-0.6875-2.2148-2.5195-3.8164-4.7344-4.3516-4.582-0.99219-8.9297-2.8242-12.977-5.3438-1.9102-1.2227-4.3516-1.2969-6.4141-0.30469l-7.7852 3.9688-2.2148-2.2148 3.9688-7.7852c1.0703-2.0625 0.91797-4.5039-0.30469-6.4141-2.5938-4.0469-4.3516-8.3984-5.3438-12.977-0.45703-2.2148-2.1367-4.0469-4.3516-4.7344l-8.3203-2.6719v-3.0547l8.3203-2.6719c2.2148-0.6875 3.8164-2.5195 4.3516-4.7344 1.0703-4.6562 2.9023-9.0078 5.418-12.977 1.2227-1.9102 1.375-4.4258 0.30469-6.4141l-3.9688-7.8633 2.1367-2.1367 7.8633 3.9688c2.0625 1.0703 4.5039 0.91797 6.4141-0.30469 3.9688-2.5195 8.3203-4.3516 12.977-5.418 2.2148-0.53516 4.0469-2.1367 4.7344-4.3516l2.6719-8.3203h3.0547l2.6719 8.3203c0.6875 2.2148 2.5195 3.8164 4.7344 4.3516 4.6562 0.99219 9.0078 2.8242 12.902 5.3438 1.9102 1.2227 4.4258 1.375 6.4141 0.30469l7.7852-3.9688 2.1367 2.1367-3.8945 7.8711c-1.0703 2.0625-0.91797 4.5039 0.30469 6.4141 2.5195 3.9688 4.3516 8.3203 5.3438 12.902 0.45703 2.2148 2.1367 4.0469 4.3516 4.7344l8.3203 2.6719z"/>
  <path d="m470.53 423.51c-15.344 0-27.785 12.441-27.785 27.711 0 15.344 12.441 27.785 27.785 27.785 15.266 0 27.711-12.441 27.711-27.785 0-15.266-12.445-27.711-27.711-27.711zm0 42.598c-8.168 0-14.809-6.6406-14.809-14.809s6.6406-14.809 14.809-14.809 14.809 6.6406 14.809 14.809-6.6406 14.809-14.809 14.809z"/>
  <path d="m467.79 263.74 2.4414-2.4414v31.906c0 3.5859 2.9023 6.4883 6.4883 6.4883 3.5859 0 6.4883-2.9023 6.4883-6.4883v-31.906l2.4414 2.4414c1.2969 1.2969 2.9023 1.9102 4.582 1.9102 1.6797 0 3.2812-0.60938 4.582-1.9102 2.5195-2.5195 2.5195-6.6406 0-9.1602l-13.434-13.434c-2.5195-2.5195-6.6406-2.5195-9.1602 0l-13.434 13.434c-2.5195 2.5195-2.5195 6.6406 0 9.1602 2.4375 2.5195 6.4844 2.5195 9.0039 0z"/>
  <path d="m526.71 297.79c1.2969 1.2969 2.9023 1.9102 4.582 1.9102s3.2812-0.60937 4.582-1.9102l13.434-13.434c2.5195-2.5195 2.5195-6.6406 0-9.1602-2.5195-2.5195-6.6406-2.5195-9.1602 0l-2.4414 2.4414v-31.906c0-3.5859-2.9023-6.4883-6.4883-6.4883-3.5859 0-6.4883 2.9023-6.4883 6.4883v31.906l-2.4414-2.4414c-2.5195-2.5195-6.6406-2.5195-9.1602 0-2.5195 2.5195-2.5195 6.6406 0 9.1602z"/>
 </g>
</svg>