<?xml version="1.0" encoding="UTF-8"?>
<!-- Uploaded to: ICON Repo, www.iconrepo.com, Generator: ICON Repo Mixer Tools -->
<svg fill="#000000" width="800px" height="800px" version="1.1" viewBox="144 144 512 512" xmlns="http://www.w3.org/2000/svg">
 <g>
  <path d="m364.23 526.29c-4.5703 10.969-17.891 12.102-19.25 26.203-8.4688-6.6016-5.2383-20.348-5.2383-20.348-10.082 12.508-19.172 4.5352-28.516 21.793-14.41-20.828 6.75-44.309 6.75-44.309s-9.6914-1.0547-17.008 5.9141c-3.3672-13.16 12.297-27.246 29.648-28.918-19.68-6.2578-40.203-2.4883-52.316 7.582-18.258 15.176-11.984 34.602-35.23 50.637 17.598 12.281 39.121-1.293 39.121-1.293-14.863 22.699 1.1523 45.371-26.699 66.141 47 20.262 81.879-36.898 81.879-36.898s8.7422 13.32-0.26562 31.391c33.145-1.5977 51.418-54.789 28.359-90.934 0.75391 4.7227 0.32031 9.293-1.2344 13.039z"/>
  <path d="m530.99 440.17c-21.805 21.906-44.727 38.684-63.426 50.527-21.52 13.629-40.293 22.691-51.727 27.711l37.918 101.96c3.0625 8.2383 8.625 8.4883 12.426 0.55859l73.156-152.7c2.4727-5.1484 2.3359-9.1289-0.48047-14.102z"/>
  <path d="m599.43 181.58c-0.23828-2.625-0.86328-5.7734-2.7773-7.2148-1.9141-1.4453-5.125-1.1836-7.707-0.69922-15.008 2.832-46.246 9.9922-81.355 25.492l89.699 67.656c5.2461-38.027 3.543-70.035 2.1406-85.234z"/>
  <path d="m411.8 264.78c-73.809 78.18-81.793 191.58-81.793 191.58l68.762 51.867s106.84-38.84 161.74-131.29c17.941-30.207 28.191-62.543 33.875-92.387l-103.05-77.719c-27.141 13.664-55.414 32.41-79.531 57.953zm114.81 61.504c0 24.602-19.945 44.547-44.551 44.547-24.605 0-44.551-19.945-44.551-44.547 0-24.605 19.945-44.547 44.551-44.547 24.605 0 44.551 19.941 44.551 44.547z"/>
  <path d="m327.96 385.39c6.2578-21.23 16.086-47.883 31.156-74.867l-15.598-3.7422c-5.5586-1.3281-9.4102-0.36719-13.688 3.4219l-126.71 112.29c-6.5742 5.8281-4.8047 11.105 3.9531 11.793l108.45 8.4453c1.6914-12.375 5.25-32.914 12.438-57.344z"/>
 </g>
</svg>