<?xml version="1.0" encoding="UTF-8"?>
<!-- Uploaded to: ICON Repo, www.iconrepo.com, Generator: ICON Repo Mixer Tools -->
<svg width="800px" height="800px" version="1.1" viewBox="144 144 512 512" xmlns="http://www.w3.org/2000/svg">
 <defs>
  <clipPath id="a">
   <path d="m148.09 179h503.81v442h-503.81z"/>
  </clipPath>
 </defs>
 <g clip-path="url(#a)">
  <path d="m651.9 226.81v-23.613c0-12.988-10.629-23.617-23.617-23.617h-456.57c-12.988 0-23.617 10.629-23.617 23.617v417.21h503.81zm-358.18-35.422h291.27c6.4922 0 11.809 5.3125 11.809 11.809 0 6.4961-5.3125 11.809-11.809 11.809h-291.27c-6.4961 0-11.809-5.3164-11.809-11.809 0-6.4961 5.3125-11.809 11.809-11.809zm-65.762 5.0859c3.7148 0 6.7227 3.0039 6.7227 6.7227 0 3.7148-3.0078 6.7227-6.7227 6.7227-3.7188 0-6.7227-3.0078-6.7227-6.7227 0-3.7188 3.0039-6.7227 6.7227-6.7227zm-20.176 0c3.7148 0 6.7227 3.0078 6.7227 6.7227 0 3.7148-3.0078 6.7227-6.7227 6.7227-3.7109 0-6.7227-3.0078-6.7227-6.7227 0-3.7188 3.0117-6.7227 6.7227-6.7227zm-20.168 0c3.7148 0 6.7227 3.0078 6.7227 6.7227 0 3.7148-3.0078 6.7227-6.7227 6.7227-3.7188 0-6.7266-3.0078-6.7266-6.7227 0-3.7188 3.0078-6.7227 6.7266-6.7227zm456.41 416.07h-488.07v-385.73h488.07z"/>
 </g>
 <path d="m518.12 466.84h78.719v-70.848h-78.719zm7.875-62.977h62.977v55.105h-62.977z"/>
 <path d="m203.24 403.86h267.65v7.8711h-267.65z"/>
 <path d="m203.24 427.48h267.65v7.8711h-267.65z"/>
 <path d="m203.24 451.1h267.65v7.8711h-267.65z"/>
 <path d="m518.12 569.18h78.719v-70.848h-78.719zm7.875-62.977h62.977v55.105h-62.977z"/>
 <path d="m203.24 506.2h267.65v7.8711h-267.65z"/>
 <path d="m203.24 529.82h267.65v7.8711h-267.65z"/>
 <path d="m203.24 553.43h267.65v7.8711h-267.65z"/>
 <path d="m596.84 270.04h-393.6v86.594h393.6zm-7.875 78.719h-377.86v-70.848h377.86z"/>
</svg>