<?xml version="1.0" encoding="UTF-8"?>
<!-- Uploaded to: ICON Repo, www.iconrepo.com, Generator: ICON Repo Mixer Tools -->
<svg fill="#000000" width="800px" height="800px" version="1.1" viewBox="144 144 512 512" xmlns="http://www.w3.org/2000/svg">
 <g>
  <path d="m400 158.17c-134.02 0-241.83 108.82-241.83 241.83 0 134.01 107.82 241.83 241.83 241.83s241.83-107.82 241.83-241.83c0-133.01-107.82-241.83-241.83-241.83zm0 419.17c-97.738 0-177.34-79.602-177.34-177.34s79.602-177.34 177.34-177.34 177.34 79.602 177.34 177.34-79.602 177.34-177.34 177.34z"/>
  <path d="m400 243.82c-85.648 0-156.18 70.535-156.18 156.18 0 85.648 70.535 156.18 156.18 156.18 85.648 0 156.18-70.535 156.18-156.18 0-85.645-70.535-156.18-156.18-156.18zm29.219 25.191c16.121 3.0234 30.23 9.0703 43.328 18.137l-43.328 43.328zm-58.441 0v61.465l-43.328-43.328c13.102-9.0664 28.215-15.113 43.328-18.137zm-83.633 58.441 43.328 43.328h-61.465c3.0234-15.113 9.0703-30.227 18.137-43.328zm0 145.1c-8.0625-13.098-15.113-28.215-18.137-43.328h61.465zm83.633 58.441c-16.121-3.0234-30.23-10.078-43.328-18.137l43.328-43.328zm-21.16-130.99c0-28.215 22.168-50.383 50.383-50.383s50.383 22.168 50.383 50.383-22.168 50.383-50.383 50.383c-28.215-0.003906-50.383-22.172-50.383-50.383zm79.602 130.99v-61.465l43.328 43.328c-13.098 9.0703-28.215 15.113-43.328 18.137zm83.633-58.441-43.328-43.328h61.465c-3.0234 15.113-9.0664 30.23-18.137 43.328zm18.137-101.77h-61.465l43.328-43.328c9.0703 13.102 15.113 28.215 18.137 43.328z"/>
  <path d="m400 370.78c-16.121 0-29.223 13.098-29.223 29.223 0 16.121 13.098 29.223 29.223 29.223 16.121 0 29.223-13.098 29.223-29.223-0.003906-16.125-13.102-29.223-29.223-29.223z"/>
 </g>
</svg>